<svg width="46" height="41" viewBox="0 0 46 41" fill="none" xmlns="http://www.w3.org/2000/svg">
<path d="M12.6706 22.0359C15.7005 24.2395 19.2813 25.3413 23.1376 25.3413C26.7184 25.3413 30.5749 24.2395 33.6048 22.0359L45.7244 13.7724C45.7244 13.7724 45.7245 13.7724 46 13.7724C46 10.7425 43.521 8.26347 40.491 8.26347H34.982V7.71254C34.982 3.5808 31.6765 0 27.2693 0H18.7305C14.5988 0 11.018 3.30535 11.018 7.71254V8.26347H5.50898C2.47904 8.26347 0 10.7425 0 13.497C0 13.497 -6.72524e-05 13.497 0.275382 13.497L12.6706 22.0359ZM15.4251 7.43715C15.4251 5.50901 17.0778 4.13173 18.7305 4.13173H27.2693C29.1975 4.13173 30.5748 5.78446 30.5748 7.43715V7.988H15.1497V7.43715H15.4251Z" fill="#353535"/>
<path d="M23.1375 27.27C19.0057 27.27 14.8741 25.8928 11.5687 23.6892L0.550781 15.9766V34.9826C0.550781 38.0125 3.02982 40.4916 6.05976 40.4916H40.4909C43.5208 40.4916 45.9998 38.0125 45.9998 34.9826V15.9766L34.9819 23.6892C31.4011 26.1682 27.2692 27.27 23.1375 27.27Z" fill="#353535"/>
<mask id="mask0_261_429" style="mask-type:alpha" maskUnits="userSpaceOnUse" x="0" y="0" width="46" height="41">
<path d="M12.6706 22.0359C15.7005 24.2395 19.2813 25.3413 23.1376 25.3413C26.7184 25.3413 30.5749 24.2395 33.6048 22.0359L45.7244 13.7724C45.7244 13.7724 45.7245 13.7724 46 13.7724C46 10.7425 43.521 8.26347 40.491 8.26347H34.982V7.71254C34.982 3.5808 31.6765 0 27.2693 0H18.7305C14.5988 0 11.018 3.30535 11.018 7.71254V8.26347H5.50898C2.47904 8.26347 0 10.7425 0 13.497C0 13.497 -6.72524e-05 13.497 0.275382 13.497L12.6706 22.0359ZM15.4251 7.43715C15.4251 5.50901 17.0778 4.13173 18.7305 4.13173H27.2693C29.1975 4.13173 30.5748 5.78446 30.5748 7.43715V7.988H15.1497V7.43715H15.4251Z" fill="#1A1A1A"/>
<path d="M12.6706 22.0359C15.7005 24.2395 19.2813 25.3413 23.1376 25.3413C26.7184 25.3413 30.5749 24.2395 33.6048 22.0359L45.7244 13.7724C45.7244 13.7724 45.7245 13.7724 46 13.7724C46 10.7425 43.521 8.26347 40.491 8.26347H34.982V7.71254C34.982 3.5808 31.6765 0 27.2693 0H18.7305C14.5988 0 11.018 3.30535 11.018 7.71254V8.26347H5.50898C2.47904 8.26347 0 10.7425 0 13.497C0 13.497 -6.72524e-05 13.497 0.275382 13.497L12.6706 22.0359ZM15.4251 7.43715C15.4251 5.50901 17.0778 4.13173 18.7305 4.13173H27.2693C29.1975 4.13173 30.5748 5.78446 30.5748 7.43715V7.988H15.1497V7.43715H15.4251Z" fill="black" fill-opacity="0.2"/>
<path d="M23.1375 27.27C19.0057 27.27 14.8741 25.8928 11.5687 23.6892L0.550781 15.9766V34.9826C0.550781 38.0125 3.02982 40.4916 6.05976 40.4916H40.4909C43.5208 40.4916 45.9998 38.0125 45.9998 34.9826V15.9766L34.9819 23.6892C31.4011 26.1682 27.2692 27.27 23.1375 27.27Z" fill="#1A1A1A"/>
<path d="M23.1375 27.27C19.0057 27.27 14.8741 25.8928 11.5687 23.6892L0.550781 15.9766V34.9826C0.550781 38.0125 3.02982 40.4916 6.05976 40.4916H40.4909C43.5208 40.4916 45.9998 38.0125 45.9998 34.9826V15.9766L34.9819 23.6892C31.4011 26.1682 27.2692 27.27 23.1375 27.27Z" fill="black" fill-opacity="0.2"/>
</mask>
<g mask="url(#mask0_261_429)">
<g filter="url(#filter0_f_261_429)">
<circle cx="23" cy="-2" r="40" fill="#066A34"/>
</g>
</g>
<defs>
<filter id="filter0_f_261_429" x="-67" y="-92" width="180" height="180" filterUnits="userSpaceOnUse" color-interpolation-filters="sRGB">
<feFlood flood-opacity="0" result="BackgroundImageFix"/>
<feBlend mode="normal" in="SourceGraphic" in2="BackgroundImageFix" result="shape"/>
<feGaussianBlur stdDeviation="25" result="effect1_foregroundBlur_261_429"/>
</filter>
</defs>
</svg>
