<svg width="102" height="102" viewBox="0 0 102 102" fill="none" xmlns="http://www.w3.org/2000/svg">
<path fill-rule="evenodd" clip-rule="evenodd" d="M85 46.75C85 34.8121 85 28.8431 82.135 24.5553C80.8947 22.6991 79.3009 21.1053 77.4447 19.865C73.1569 17 67.1879 17 55.25 17H46.75C34.8121 17 28.8431 17 24.5553 19.865C22.6991 21.1053 21.1053 22.6991 19.865 24.5553C17 28.8431 17 34.8121 17 46.75C17 58.6879 17 64.6569 19.865 68.9447C21.1053 70.8009 22.6991 72.3947 24.5553 73.635C28.301 76.1378 33.3298 76.4542 42.5 76.4942V76.5L47.1987 85.8974C48.7649 89.0298 53.2351 89.0298 54.8013 85.8974L59.5 76.5V76.4942C68.6702 76.4542 73.6989 76.1378 77.4447 73.635C79.3009 72.3947 80.8947 70.8009 82.135 68.9447C85 64.6569 85 58.6879 85 46.75ZM38.25 34C35.9028 34 34 35.9028 34 38.25C34 40.5972 35.9028 42.5 38.25 42.5H63.75C66.0972 42.5 68 40.5972 68 38.25C68 35.9028 66.0972 34 63.75 34H38.25ZM38.25 51C35.9028 51 34 52.9028 34 55.25C34 57.5972 35.9028 59.5 38.25 59.5H51C53.3472 59.5 55.25 57.5972 55.25 55.25C55.25 52.9028 53.3472 51 51 51H38.25Z" fill="white"/>
</svg>
