<svg width="48" height="40" viewBox="0 0 48 40" fill="none" xmlns="http://www.w3.org/2000/svg">
<path d="M32 8C32 12.4183 28.4183 16 24 16C19.5817 16 16 12.4183 16 8C16 3.58172 19.5817 0 24 0C28.4183 0 32 3.58172 32 8Z" fill="#353535"/>
<path d="M45.3333 13.3333C45.3333 16.2789 42.9455 18.6667 40 18.6667C37.0545 18.6667 34.6667 16.2789 34.6667 13.3333C34.6667 10.3878 37.0545 8 40 8C42.9455 8 45.3333 10.3878 45.3333 13.3333Z" fill="#353535"/>
<path d="M34.6667 32C34.6667 26.109 29.891 21.3333 24 21.3333C18.109 21.3333 13.3333 26.109 13.3333 32V40H34.6667V32Z" fill="#353535"/>
<path d="M13.3333 13.3333C13.3333 16.2789 10.9455 18.6667 8 18.6667C5.05448 18.6667 2.66667 16.2789 2.66667 13.3333C2.66667 10.3878 5.05448 8 8 8C10.9455 8 13.3333 10.3878 13.3333 13.3333Z" fill="#353535"/>
<path d="M40 40V32C40 29.1889 39.2751 26.5472 38.002 24.2515C38.6406 24.0873 39.3101 24 40 24C44.4183 24 48 27.5817 48 32V40H40Z" fill="#353535"/>
<path d="M9.99803 24.2515C8.72493 26.5472 8 29.1889 8 32V40H0V32C0 27.5817 3.58172 24 8 24C8.68989 24 9.35938 24.0873 9.99803 24.2515Z" fill="#353535"/>
<mask id="mask0_261_447" style="mask-type:alpha" maskUnits="userSpaceOnUse" x="0" y="0" width="48" height="40">
<path d="M32 8C32 12.4183 28.4183 16 24 16C19.5817 16 16 12.4183 16 8C16 3.58172 19.5817 0 24 0C28.4183 0 32 3.58172 32 8Z" fill="#1F1F1F"/>
<path d="M45.3333 13.3333C45.3333 16.2789 42.9455 18.6667 40 18.6667C37.0545 18.6667 34.6667 16.2789 34.6667 13.3333C34.6667 10.3878 37.0545 8 40 8C42.9455 8 45.3333 10.3878 45.3333 13.3333Z" fill="#1F1F1F"/>
<path d="M34.6667 32C34.6667 26.109 29.891 21.3333 24 21.3333C18.109 21.3333 13.3333 26.109 13.3333 32V40H34.6667V32Z" fill="#1F1F1F"/>
<path d="M13.3333 13.3333C13.3333 16.2789 10.9455 18.6667 8 18.6667C5.05448 18.6667 2.66667 16.2789 2.66667 13.3333C2.66667 10.3878 5.05448 8 8 8C10.9455 8 13.3333 10.3878 13.3333 13.3333Z" fill="#1F1F1F"/>
<path d="M40 40V32C40 29.1889 39.2751 26.5472 38.002 24.2515C38.6406 24.0873 39.3101 24 40 24C44.4183 24 48 27.5817 48 32V40H40Z" fill="#1F1F1F"/>
<path d="M9.99803 24.2515C8.72493 26.5472 8 29.1889 8 32V40H0V32C0 27.5817 3.58172 24 8 24C8.68989 24 9.35938 24.0873 9.99803 24.2515Z" fill="#1F1F1F"/>
</mask>
<g mask="url(#mask0_261_447)">
<g filter="url(#filter0_f_261_447)">
<circle cx="23" cy="-2" r="40" fill="#066A34"/>
</g>
</g>
<defs>
<filter id="filter0_f_261_447" x="-67" y="-92" width="180" height="180" filterUnits="userSpaceOnUse" color-interpolation-filters="sRGB">
<feFlood flood-opacity="0" result="BackgroundImageFix"/>
<feBlend mode="normal" in="SourceGraphic" in2="BackgroundImageFix" result="shape"/>
<feGaussianBlur stdDeviation="25" result="effect1_foregroundBlur_261_447"/>
</filter>
</defs>
</svg>
