<svg width="40" height="45" viewBox="0 0 40 45" fill="none" xmlns="http://www.w3.org/2000/svg">
<path fill-rule="evenodd" clip-rule="evenodd" d="M2.85714 5.625C2.85714 2.5184 5.41552 0 8.57143 0H31.4286C34.5845 0 37.1429 2.5184 37.1429 5.625V39.375C38.7208 39.375 40 40.6342 40 42.1875C40 43.7408 38.7208 45 37.1429 45H26.7143C26.162 45 25.7143 44.5523 25.7143 44V36.5625C25.7143 35.0092 24.4351 33.75 22.8571 33.75H17.1429C15.5649 33.75 14.2857 35.0092 14.2857 36.5625V44C14.2857 44.5523 13.838 45 13.2857 45H2.85714C1.27919 45 0 43.7408 0 42.1875C0 40.6342 1.27919 39.375 2.85714 39.375V5.625ZM11.4286 8.4375H17.1429V14.0625H11.4286V8.4375ZM17.1429 19.6875H11.4286V25.3125H17.1429V19.6875ZM22.8571 8.4375H28.5714V14.0625H22.8571V8.4375ZM28.5714 19.6875H22.8571V25.3125H28.5714V19.6875Z" fill="#353535"/>
<mask id="mask0_261_499" style="mask-type:alpha" maskUnits="userSpaceOnUse" x="0" y="0" width="40" height="45">
<path fill-rule="evenodd" clip-rule="evenodd" d="M2.85714 5.625C2.85714 2.5184 5.41552 0 8.57143 0H31.4286C34.5845 0 37.1429 2.5184 37.1429 5.625V39.375C38.7208 39.375 40 40.6342 40 42.1875C40 43.7408 38.7208 45 37.1429 45H26.7143C26.162 45 25.7143 44.5523 25.7143 44V36.5625C25.7143 35.0092 24.4351 33.75 22.8571 33.75H17.1429C15.5649 33.75 14.2857 35.0092 14.2857 36.5625V44C14.2857 44.5523 13.838 45 13.2857 45H2.85714C1.27919 45 0 43.7408 0 42.1875C0 40.6342 1.27919 39.375 2.85714 39.375V5.625ZM11.4286 8.4375H17.1429V14.0625H11.4286V8.4375ZM17.1429 19.6875H11.4286V25.3125H17.1429V19.6875ZM22.8571 8.4375H28.5714V14.0625H22.8571V8.4375ZM28.5714 19.6875H22.8571V25.3125H28.5714V19.6875Z" fill="#1F1F1F"/>
</mask>
<g mask="url(#mask0_261_499)">
<g filter="url(#filter0_f_261_499)">
<circle cx="19" cy="1" r="40" fill="#066A34"/>
</g>
</g>
<defs>
<filter id="filter0_f_261_499" x="-71" y="-89" width="180" height="180" filterUnits="userSpaceOnUse" color-interpolation-filters="sRGB">
<feFlood flood-opacity="0" result="BackgroundImageFix"/>
<feBlend mode="normal" in="SourceGraphic" in2="BackgroundImageFix" result="shape"/>
<feGaussianBlur stdDeviation="25" result="effect1_foregroundBlur_261_499"/>
</filter>
</defs>
</svg>
