<svg width="48" height="48" viewBox="0 0 48 48" fill="none" xmlns="http://www.w3.org/2000/svg">
<g clip-path="url(#clip0_261_486)">
<path d="M24 0C17.6348 0 11.5303 2.52856 7.02944 7.02944C2.52856 11.5303 0 17.6348 0 24C0 30.3652 2.52856 36.4697 7.02944 40.9706C11.5303 45.4714 17.6348 48 24 48C30.3652 48 36.4697 45.4714 40.9706 40.9706C45.4714 36.4697 48 30.3652 48 24C48 17.6348 45.4714 11.5303 40.9706 7.02944C36.4697 2.52856 30.3652 0 24 0V0ZM3 24C3 18.4305 5.21249 13.089 9.15076 9.15076C13.089 5.21249 18.4305 3 24 3C26.7848 3 29.4555 4.10625 31.4246 6.07538C33.3938 8.04451 34.5 10.7152 34.5 13.5C34.5 16.2848 33.3938 18.9555 31.4246 20.9246C29.4555 22.8938 26.7848 24 24 24C21.2152 24 18.5445 25.1062 16.5754 27.0754C14.6062 29.0445 13.5 31.7152 13.5 34.5C13.5 37.2848 14.6062 39.9555 16.5754 41.9246C18.5445 43.8938 21.2152 45 24 45C18.4305 45 13.089 42.7875 9.15076 38.8492C5.21249 34.911 3 29.5695 3 24ZM24 38.001C23.0715 38.001 22.181 37.6321 21.5244 36.9756C20.8679 36.319 20.499 35.4285 20.499 34.5C20.499 33.5715 20.8679 32.681 21.5244 32.0244C22.181 31.3679 23.0715 30.999 24 30.999C24.9285 30.999 25.819 31.3679 26.4756 32.0244C27.1321 32.681 27.501 33.5715 27.501 34.5C27.501 35.4285 27.1321 36.319 26.4756 36.9756C25.819 37.6321 24.9285 38.001 24 38.001Z" fill="#353535"/>
<path d="M27.501 13.5C27.501 14.4285 27.1322 15.319 26.4756 15.9756C25.819 16.6322 24.9285 17.001 24 17.001C23.0715 17.001 22.181 16.6322 21.5244 15.9756C20.8679 15.319 20.499 14.4285 20.499 13.5C20.499 12.5715 20.8679 11.681 21.5244 11.0244C22.181 10.3679 23.0715 9.99902 24 9.99902C24.9285 9.99902 25.819 10.3679 26.4756 11.0244C27.1322 11.681 27.501 12.5715 27.501 13.5Z" fill="#0A5D2F"/>
<mask id="mask0_261_486" style="mask-type:alpha" maskUnits="userSpaceOnUse" x="0" y="0" width="48" height="48">
<path d="M24 0C17.6348 0 11.5303 2.52856 7.02944 7.02944C2.52856 11.5303 0 17.6348 0 24C0 30.3652 2.52856 36.4697 7.02944 40.9706C11.5303 45.4714 17.6348 48 24 48C30.3652 48 36.4697 45.4714 40.9706 40.9706C45.4714 36.4697 48 30.3652 48 24C48 17.6348 45.4714 11.5303 40.9706 7.02944C36.4697 2.52856 30.3652 0 24 0V0ZM3 24C3 18.4305 5.21249 13.089 9.15076 9.15076C13.089 5.21249 18.4305 3 24 3C26.7848 3 29.4555 4.10625 31.4246 6.07538C33.3938 8.04451 34.5 10.7152 34.5 13.5C34.5 16.2848 33.3938 18.9555 31.4246 20.9246C29.4555 22.8938 26.7848 24 24 24C21.2152 24 18.5445 25.1062 16.5754 27.0754C14.6062 29.0445 13.5 31.7152 13.5 34.5C13.5 37.2848 14.6062 39.9555 16.5754 41.9246C18.5445 43.8938 21.2152 45 24 45C18.4305 45 13.089 42.7875 9.15076 38.8492C5.21249 34.911 3 29.5695 3 24ZM24 38.001C23.0715 38.001 22.181 37.6321 21.5244 36.9756C20.8679 36.319 20.499 35.4285 20.499 34.5C20.499 33.5715 20.8679 32.681 21.5244 32.0244C22.181 31.3679 23.0715 30.999 24 30.999C24.9285 30.999 25.819 31.3679 26.4756 32.0244C27.1321 32.681 27.501 33.5715 27.501 34.5C27.501 35.4285 27.1321 36.319 26.4756 36.9756C25.819 37.6321 24.9285 38.001 24 38.001Z" fill="#1F1F1F"/>
</mask>
<g mask="url(#mask0_261_486)">
<g filter="url(#filter0_f_261_486)">
<circle cx="23" cy="-2" r="40" fill="#066A34"/>
</g>
</g>
</g>
<defs>
<filter id="filter0_f_261_486" x="-67" y="-92" width="180" height="180" filterUnits="userSpaceOnUse" color-interpolation-filters="sRGB">
<feFlood flood-opacity="0" result="BackgroundImageFix"/>
<feBlend mode="normal" in="SourceGraphic" in2="BackgroundImageFix" result="shape"/>
<feGaussianBlur stdDeviation="25" result="effect1_foregroundBlur_261_486"/>
</filter>
<clipPath id="clip0_261_486">
<rect width="48" height="48" fill="white"/>
</clipPath>
</defs>
</svg>
