<svg width="17" height="16" viewBox="0 0 17 16" fill="none" xmlns="http://www.w3.org/2000/svg">
<g clip-path="url(#clip0_268_363)">
<path d="M15.7485 5.88306L10.5242 5.4024L8.44899 0.622132C8.3037 0.287414 7.82528 0.287414 7.67999 0.622132L5.6048 5.40244L0.380552 5.88306C0.0147518 5.91672 -0.133087 6.36806 0.142902 6.60856L4.08461 10.0436L2.93108 15.121C2.8503 15.4765 3.23734 15.7554 3.55321 15.5694L8.06451 12.912L12.5758 15.5694C12.8917 15.7554 13.2787 15.4765 13.198 15.121L12.0444 10.0436L15.9861 6.60856C16.2621 6.36806 16.1143 5.91672 15.7485 5.88306Z" fill="#FFDC64"/>
<path d="M8.44899 0.622132C8.3037 0.287414 7.82528 0.287414 7.67999 0.622132L5.6048 5.40244L0.380552 5.88306C0.0147518 5.91672 -0.133087 6.36806 0.142902 6.60856L4.08461 10.0436L2.93108 15.121C2.8503 15.4765 3.23734 15.7554 3.55321 15.5694L4.5601 14.9763C4.69947 9.28562 7.36485 5.27822 9.4751 2.98575L8.44899 0.622132Z" fill="#FFC850"/>
</g>
<defs>
<clipPath id="clip0_268_363">
<rect width="16.129" height="16" fill="white"/>
</clipPath>
</defs>
</svg>
