<svg width="108" height="109" viewBox="0 0 108 109" fill="none" xmlns="http://www.w3.org/2000/svg">
<path d="M54 108.241C83.8234 108.241 108 84.0102 108 54.1204C108 24.2305 83.8234 0 54 0C24.1766 0 0 24.2305 0 54.1204C0 84.0102 24.1766 108.241 54 108.241Z" fill="url(#paint0_linear_269_132)"/>
<path fill-rule="evenodd" clip-rule="evenodd" d="M24.4436 53.5486C40.1857 46.6747 50.6829 42.1431 55.9352 39.9536C70.9315 33.7022 74.0476 32.6163 76.0787 32.5805C76.5254 32.5726 77.5242 32.6835 78.1712 33.2097C78.7175 33.6539 78.8678 34.2541 78.9397 34.6753C79.0117 35.0965 79.1012 36.0561 79.03 36.8058C78.2174 45.3635 74.701 66.1307 72.9121 75.7154C72.1551 79.771 70.6646 81.1309 69.2217 81.264C66.0858 81.5532 63.7046 79.1869 60.6673 77.1916C55.9146 74.0692 53.2296 72.1255 48.6163 69.0786C43.2848 65.5574 46.741 63.6221 49.7794 60.4593C50.5746 59.6316 64.3913 47.0362 64.6587 45.8936C64.6922 45.7507 64.7232 45.2181 64.4075 44.9368C64.0917 44.6555 63.6257 44.7517 63.2894 44.8282C62.8128 44.9366 55.2203 49.9662 40.5119 59.9168C38.3568 61.3999 36.4048 62.1226 34.6559 62.0847C32.7278 62.0429 29.0189 60.9921 26.2618 60.0939C22.88 58.9921 20.1923 58.4097 20.4263 56.5386C20.5482 55.564 21.8873 54.5674 24.4436 53.5486Z" fill="white"/>
<defs>
<linearGradient id="paint0_linear_269_132" x1="54" y1="0" x2="54" y2="107.438" gradientUnits="userSpaceOnUse">
<stop stop-color="#2AABEE"/>
<stop offset="1" stop-color="#229ED9"/>
</linearGradient>
</defs>
</svg>
