<svg width="107" height="75" viewBox="0 0 107 75" fill="none" xmlns="http://www.w3.org/2000/svg">
<g clip-path="url(#clip0_746_452)">
<path d="M104.637 11.6979C104.023 9.4369 102.826 7.3756 101.165 5.71928C99.5031 4.06297 97.4354 2.86942 95.1674 2.2575C86.864 0 53.4457 0 53.4457 0C53.4457 0 20.0258 0.0683331 11.7224 2.32583C9.45432 2.93779 7.3866 4.1314 5.72518 5.78779C4.06376 7.44419 2.8666 9.50557 2.25293 11.7667C-0.258642 26.4742 -1.23293 48.885 2.3219 63.0042C2.93563 65.2652 4.13281 67.3265 5.79423 68.9828C7.45565 70.6391 9.52334 71.8327 11.7914 72.4446C20.0948 74.7021 53.5139 74.7021 53.5139 74.7021C53.5139 74.7021 86.9326 74.7021 95.2355 72.4446C97.5036 71.8327 99.5714 70.6392 101.233 68.9829C102.894 67.3266 104.092 65.2652 104.705 63.0042C107.355 48.2758 108.171 25.8792 104.637 11.6983V11.6979Z" fill="#FF0000"/>
<path d="M42.8086 53.3587L70.5316 37.3512L42.8086 21.3438V53.3587Z" fill="white"/>
</g>
<defs>
<clipPath id="clip0_746_452">
<rect width="107" height="75" fill="white"/>
</clipPath>
</defs>
</svg>
