<?xml version="1.0"?>
<svg xmlns="http://www.w3.org/2000/svg" xmlns:xlink="http://www.w3.org/1999/xlink" version="1.1" xml:space="preserve">
	<defs>

        <symbol id="loader" width="100%" height="100%" viewBox="22 22 44 44">
            <circle cx="44" cy="44" r="20.2" fill="none" stroke="currentColor" stroke-width="4"></circle>
        </symbol>

        <symbol id="burger" width="100%" height="100%" viewBox="0 0 48 48">
            <path d="M41,14H7a2,2,0,0,1,0-4H41A2,2,0,0,1,41,14Z" fill="currentColor"/>
            <path d="M41,26H7a2,2,0,0,1,0-4H41A2,2,0,0,1,41,26Z" fill="currentColor"/>
            <path d="M41,38H7a2,2,0,0,1,0-4H41A2,2,0,0,1,41,38Z" fill="currentColor"/>
        </symbol>

        <symbol id="success" width="100%" height="100%" viewBox="0 0 68 68">
            <path fill-rule="evenodd" clip-rule="evenodd" d="M34 68C52.7777 68 68 52.7777 68 34C68 15.2223 52.7777 0 34 0C15.2223 0 0 15.2223 0 34C0 52.7777 15.2223 68 34 68ZM49.7552 28.5052C51.4149 26.8455 51.4149 24.1545 49.7552 22.4948C48.0955 20.8351 45.4045 20.8351 43.7448 22.4948L29.75 36.4896L24.2552 30.9948C22.5955 29.3351 19.9045 29.3351 18.2448 30.9948C16.5851 32.6545 16.5851 35.3455 18.2448 37.0052L26.7448 45.5052C28.4045 47.1649 31.0955 47.1649 32.7552 45.5052L49.7552 28.5052Z" fill="currentColor"/>
        </symbol>

        <symbol id="phone" width="100%" height="100%" viewBox="0 0 24 24">
            <path d="M12.8 6.39984C12.3584 6.39984 12 6.75824 12 7.19984C12 7.64144 12.3584 7.99984 12.8 7.99984C14.5648 7.99984 16 9.43504 16 11.1998C16 11.6414 16.3584 11.9998 16.8 11.9998C17.2416 11.9998 17.6 11.6414 17.6 11.1998C17.6 8.55344 15.4464 6.39984 12.8 6.39984Z" fill="currentColor"/>
            <path d="M12.8 3.19995C12.3584 3.19995 12 3.55835 12 3.99995C12 4.44155 12.3584 4.79995 12.8 4.79995C16.3296 4.79995 19.2 7.67035 19.2 11.2C19.2 11.6416 19.5584 12 20 12C20.4416 12 20.8 11.6416 20.8 11.2C20.8 6.78875 17.2112 3.19995 12.8 3.19995Z" fill="currentColor"/>
            <path d="M12.8 0C12.3584 0 12 0.3584 12 0.8C12 1.2416 12.3584 1.6 12.8 1.6C18.0944 1.6 22.4 5.9056 22.4 11.2C22.4 11.6416 22.7584 12 23.2 12C23.6416 12 24 11.6416 24 11.2C24 5.024 18.9744 0 12.8 0Z" fill="currentColor"/>
            <path d="M21.6 17.6001C19.2768 17.6001 17.064 17.0945 15.024 16.0977C14.832 16.0017 14.6112 15.9905 14.4112 16.0609C14.2096 16.1313 14.0448 16.2785 13.952 16.4689L12.6944 19.0721C9.44 17.2561 6.7456 14.5633 4.9312 11.3089L7.5328 10.0481C7.7248 9.9553 7.8704 9.7905 7.9408 9.5889C8.0096 9.3889 7.9968 9.1681 7.9024 8.9761C6.9056 6.9361 6.4 4.7233 6.4 2.4001C6.4 1.9585 6.0416 1.6001 5.6 1.6001H0.8C0.3584 1.6001 0 1.9585 0 2.4001C0 14.3105 9.6896 24.0001 21.6 24.0001C22.0416 24.0001 22.4 23.6417 22.4 23.2001V18.4001C22.4 17.9585 22.0416 17.6001 21.6 17.6001Z" fill="currentColor"/>
        </symbol>

        <symbol id="mail" width="100%" height="100%" viewBox="0 0 24 20">
            <path d="M2.30353 6.38377C2.60712 6.59801 3.52228 7.23428 5.04903 8.29227C6.57583 9.35027 7.74547 10.1649 8.55799 10.7362C8.64725 10.7988 8.83691 10.935 9.12704 11.1448C9.41722 11.3547 9.65834 11.5244 9.85019 11.6538C10.0422 11.7832 10.2743 11.9284 10.5468 12.089C10.8191 12.2495 11.0758 12.3703 11.3169 12.4502C11.558 12.5308 11.7812 12.5707 11.9865 12.5707H12H12.0135C12.2188 12.5707 12.4421 12.5308 12.6832 12.4502C12.9242 12.3703 13.1812 12.2494 13.4533 12.089C13.7256 11.9282 13.9577 11.7832 14.1497 11.6538C14.3417 11.5244 14.5826 11.3547 14.8729 11.1448C15.163 10.9348 15.3528 10.7988 15.4421 10.7362C16.2634 10.1649 18.3529 8.71394 21.7099 6.38349C22.3616 5.92833 22.9062 5.37911 23.3436 4.73622C23.7814 4.09361 24 3.41948 24 2.7142C24 2.12483 23.7878 1.62032 23.3637 1.20072C22.9396 0.78102 22.4373 0.571289 21.8571 0.571289H2.14277C1.45531 0.571289 0.92627 0.803396 0.555734 1.26761C0.185245 1.73192 0 2.31228 0 3.00865C0 3.57114 0.245617 4.18068 0.736616 4.83689C1.22757 5.49315 1.75004 6.00882 2.30353 6.38377Z" fill="currentColor"/>
            <path d="M22.6605 7.8165C19.7323 9.79846 17.5088 11.3388 15.9911 12.4371C15.4822 12.812 15.0693 13.1046 14.7523 13.3143C14.4352 13.5241 14.0136 13.7384 13.4867 13.957C12.96 14.176 12.4691 14.2851 12.0137 14.2851H12H11.9866C11.5312 14.2851 11.0401 14.176 10.5134 13.957C9.98669 13.7384 9.56474 13.5241 9.24777 13.3143C8.9309 13.1046 8.51791 12.812 8.00904 12.4371C6.80362 11.5532 4.58491 10.0128 1.35281 7.8165C0.843756 7.47744 0.392865 7.0888 0 6.65137V17.285C0 17.8746 0.209731 18.3789 0.629428 18.7985C1.04903 19.2183 1.55359 19.4281 2.14291 19.4281H21.8572C22.4464 19.4281 22.9509 19.2183 23.3706 18.7985C23.7904 18.3787 24 17.8747 24 17.285V6.65137C23.616 7.07974 23.1697 7.46839 22.6605 7.8165Z" fill="currentColor"/>
        </symbol>

        <symbol id="question" width="100%" height="100%" viewBox="0 0 30 30">
            <path fill-rule="evenodd" clip-rule="evenodd" d="M15 0C6.7155 0 0 6.7155 0 15C0 23.2845 6.7155 30 15 30C23.2845 30 30 23.2845 30 15C30 6.7155 23.2845 0 15 0ZM15 10.5C14.6022 10.5 14.2206 10.658 13.9393 10.9393C13.658 11.2206 13.5 11.6022 13.5 12C13.5 12.3978 13.342 12.7794 13.0607 13.0607C12.7794 13.342 12.3978 13.5 12 13.5C11.6022 13.5 11.2206 13.342 10.9393 13.0607C10.658 12.7794 10.5 12.3978 10.5 12C10.5003 11.2058 10.7108 10.4258 11.1101 9.73927C11.5095 9.05274 12.0834 8.48412 12.7736 8.09117C13.4638 7.69822 14.2457 7.49494 15.0398 7.50197C15.834 7.509 16.6122 7.72609 17.2953 8.1312C17.9785 8.53631 18.5422 9.115 18.9293 9.80849C19.3164 10.502 19.5131 11.2856 19.4993 12.0797C19.4856 12.8738 19.2619 13.6501 18.851 14.3298C18.4402 15.0094 17.8567 15.5683 17.16 15.9495C16.9452 16.0595 16.7508 16.2056 16.5855 16.3815C16.55 16.4188 16.5211 16.462 16.5 16.509V17.25C16.5 17.6478 16.342 18.0294 16.0607 18.3107C15.7794 18.592 15.3978 18.75 15 18.75C14.6022 18.75 14.2206 18.592 13.9393 18.3107C13.658 18.0294 13.5 17.6478 13.5 17.25V16.5C13.5 15.63 13.8795 14.9295 14.3085 14.43C14.73 13.935 15.2535 13.572 15.7185 13.317C16.0112 13.1574 16.2424 12.9049 16.3756 12.5992C16.5088 12.2936 16.5364 11.9523 16.454 11.6293C16.3716 11.3062 16.1839 11.0198 15.9206 10.8153C15.6573 10.6108 15.3334 10.4999 15 10.5ZM16.4985 16.5165V16.5105V16.518V16.5165ZM15 19.5C14.6022 19.5 14.2206 19.658 13.9393 19.9393C13.658 20.2206 13.5 20.6022 13.5 21C13.5 21.3978 13.658 21.7794 13.9393 22.0607C14.2206 22.342 14.6022 22.5 15 22.5H15.015C15.4128 22.5 15.7944 22.342 16.0757 22.0607C16.357 21.7794 16.515 21.3978 16.515 21C16.515 20.6022 16.357 20.2206 16.0757 19.9393C15.7944 19.658 15.4128 19.5 15.015 19.5H15Z" fill="currentColor"/>
        </symbol>

        <symbol id="check" width="100%" height="100%" viewBox="0 0 20 20">
            <path d="M4.1665 10L8.33317 14.1667L16.6665 5.83337" fill="rgba(0, 0, 0, 0)" stroke="currentColor" stroke-width="2" stroke-linecap="round" stroke-linejoin="round"/>
        </symbol>

        <symbol id="close" width="100%" height="100%" viewBox="0 0 34 46">
            <path d="M31.0002 20.2H28.2002V11.8C28.2002 5.63998 23.1602 0.599976 17.0002 0.599976C10.8402 0.599976 5.8002 5.63998 5.8002 11.8V20.2H3.0002C1.6002 20.2 0.200195 21.6 0.200195 23V42.6C0.200195 44 1.6002 45.4 3.0002 45.4H31.0002C32.4002 45.4 33.8002 44 33.8002 42.6V23C33.8002 21.6 32.4002 20.2 31.0002 20.2ZM19.8002 39.8H14.2002L15.3202 33.64C13.9202 33.08 12.8002 31.4 12.8002 30C12.8002 27.76 14.7602 25.8 17.0002 25.8C19.2402 25.8 21.2002 27.76 21.2002 30C21.2002 31.68 20.3602 33.08 18.6802 33.64L19.8002 39.8ZM22.6002 20.2H11.4002V11.8C11.4002 8.71998 13.9202 6.19998 17.0002 6.19998C20.0802 6.19998 22.6002 8.71998 22.6002 11.8V20.2Z" fill="currentColor"/>
        </symbol>

        <symbol id="x" width="100%" height="100%" viewBox="0 0 20 20">
            <path fill-rule="evenodd" clip-rule="evenodd" d="M4.29289 4.29289C4.68342 3.90237 5.31658 3.90237 5.70711 4.29289L10 8.58579L14.2929 4.29289C14.6834 3.90237 15.3166 3.90237 15.7071 4.29289C16.0976 4.68342 16.0976 5.31658 15.7071 5.70711L11.4142 10L15.7071 14.2929C16.0976 14.6834 16.0976 15.3166 15.7071 15.7071C15.3166 16.0976 14.6834 16.0976 14.2929 15.7071L10 11.4142L5.70711 15.7071C5.31658 16.0976 4.68342 16.0976 4.29289 15.7071C3.90237 15.3166 3.90237 14.6834 4.29289 14.2929L8.58579 10L4.29289 5.70711C3.90237 5.31658 3.90237 4.68342 4.29289 4.29289Z" fill="currentColor"/>
        </symbol>

        <symbol id="play" width="100%" height="100%" viewBox="0 0 24 24">
            <path fill-rule="evenodd" clip-rule="evenodd" d="M12 24C18.6274 24 24 18.6274 24 12C24 5.37258 18.6274 0 12 0C5.37258 0 0 5.37258 0 12C0 18.6274 5.37258 24 12 24ZM11.3321 7.75193C10.8718 7.44507 10.2799 7.41646 9.79221 7.67749C9.30448 7.93852 9 8.44681 9 9V15C9 15.5532 9.30448 16.0615 9.79221 16.3225C10.2799 16.5835 10.8718 16.5549 11.3321 16.2481L15.8321 13.2481C16.2493 12.9699 16.5 12.5015 16.5 12C16.5 11.4985 16.2493 11.0301 15.8321 10.7519L11.3321 7.75193Z" fill="currentColor"/>
        </symbol>

        <symbol id="pause" width="100%" height="100%" viewBox="0 0 24 24">
            <path fill-rule="evenodd" clip-rule="evenodd" d="M24 12C24 18.6274 18.6274 24 12 24C5.37258 24 0 18.6274 0 12C0 5.37258 5.37258 0 12 0C18.6274 0 24 5.37258 24 12ZM7.5 9C7.5 8.17157 8.17157 7.5 9 7.5C9.82843 7.5 10.5 8.17157 10.5 9V15C10.5 15.8284 9.82843 16.5 9 16.5C8.17157 16.5 7.5 15.8284 7.5 15V9ZM15 7.5C14.1716 7.5 13.5 8.17157 13.5 9V15C13.5 15.8284 14.1716 16.5 15 16.5C15.8284 16.5 16.5 15.8284 16.5 15V9C16.5 8.17157 15.8284 7.5 15 7.5Z" fill="currentColor"/>
        </symbol>

        <symbol id="volume-up" width="100%" height="100%" viewBox="0 0 24 24">
            <path d="M18.28,8.37a1,1,0,1,0-1.56,1.26,4,4,0,0,1,0,4.74A1,1,0,0,0,17.5,16a1,1,0,0,0,.78-.37A6,6,0,0,0,18.28,8.37Z" fill="currentColor"/>
            <path d="M19.64,5.23a1,1,0,1,0-1.28,1.54A6.8,6.8,0,0,1,21,12a6.8,6.8,0,0,1-2.64,5.23,1,1,0,0,0-.13,1.41A1,1,0,0,0,19,19a1,1,0,0,0,.64-.23A8.75,8.75,0,0,0,23,12,8.75,8.75,0,0,0,19.64,5.23Z" fill="currentColor"/>
            <path d="M14.47,3.12a1,1,0,0,0-1,0L7,7.57H2a1,1,0,0,0-1,1v6.86a1,1,0,0,0,1,1H7l6.41,4.4A1.06,1.06,0,0,0,14,21a1,1,0,0,0,1-1V4A1,1,0,0,0,14.47,3.12Z" fill="currentColor"/>
        </symbol>

        <symbol id="volume-off" width="100%" height="100%" viewBox="0 0 24 24">
            <path d="M16.91,14.08l1.44,1.44a6,6,0,0,0-.07-7.15,1,1,0,1,0-1.56,1.26A4,4,0,0,1,16.91,14.08Z" fill="currentColor"/>
            <path d="M21,12a6.51,6.51,0,0,1-1.78,4.39l1.42,1.42A8.53,8.53,0,0,0,23,12a8.75,8.75,0,0,0-3.36-6.77,1,1,0,1,0-1.28,1.54A6.8,6.8,0,0,1,21,12Z" fill="currentColor"/>
            <path d="M15,12.17V4a1,1,0,0,0-1.57-.83L9,6.2Z" fill="currentColor"/>
            <path d="M4.74,7.57H2a1,1,0,0,0-1,1v6.86a1,1,0,0,0,1,1H7l6.41,4.4A1.06,1.06,0,0,0,14,21a1,1,0,0,0,1-1V17.83Z" fill="currentColor"/>
            <path d="M4.71,3.29A1,1,0,0,0,3.29,4.71l16,16a1,1,0,0,0,1.42,0,1,1,0,0,0,0-1.42Z" fill="currentColor"/>
        </symbol>

        <symbol id="arrow-left" width="100%" height="100%" viewBox="0 0 11 18">
            <path d="M3.76777 9L9.88388 2.88388C10.372 2.39573 10.372 1.60427 9.88388 1.11612C9.39573 0.627961 8.60427 0.627961 8.11612 1.11612L1.11612 8.11612C0.62796 8.60427 0.62796 9.39573 1.11612 9.88388L8.11612 16.8839C8.60427 17.372 9.39573 17.372 9.88388 16.8839C10.372 16.3957 10.372 15.6043 9.88388 15.1161L3.76777 9Z" fill="currentColor"/>
        </symbol>

        <symbol id="arrow-right" width="100%" height="100%" viewBox="0 0 11 18">
            <path d="M7.23223 9L1.11612 2.88388C0.627961 2.39573 0.627961 1.60427 1.11612 1.11612C1.60427 0.627961 2.39573 0.627961 2.88388 1.11612L9.88388 8.11612C10.372 8.60427 10.372 9.39573 9.88388 9.88388L2.88388 16.8839C2.39573 17.372 1.60427 17.372 1.11612 16.8839C0.627961 16.3957 0.627961 15.6043 1.11612 15.1161L7.23223 9Z" fill="currentColor"/>
        </symbol>

    </defs>
</svg>