<?xml version="1.0" standalone="no"?>
<!DOCTYPE svg PUBLIC "-//W3C//DTD SVG 20010904//EN"
 "http://www.w3.org/TR/2001/REC-SVG-20010904/DTD/svg10.dtd">
<svg version="1.0" xmlns="http://www.w3.org/2000/svg"
 width="260.000000pt" height="260.000000pt" viewBox="0 0 260.000000 260.000000"
 preserveAspectRatio="xMidYMid meet">
<metadata>
Created by potrace 1.14, written by Peter Selinger 2001-2017
</metadata>
<g transform="translate(0.000000,260.000000) scale(0.100000,-0.100000)"
fill="#000000" stroke="none">
<path d="M265 2586 c-108 -34 -186 -102 -232 -201 l-28 -60 0 -1025 0 -1025
28 -60 c36 -78 104 -146 181 -182 l61 -28 1025 0 1025 0 61 28 c77 36 145 104
181 182 l28 60 0 1025 0 1025 -28 61 c-36 77 -104 145 -182 181 l-60 28 -1010
2 c-797 1 -1018 -1 -1050 -11z m807 -966 l3 -301 248 301 248 300 151 0 c143
0 150 -1 136 -17 -8 -10 -88 -106 -179 -213 -90 -107 -205 -243 -256 -302 -51
-60 -93 -112 -93 -116 0 -7 236 -280 522 -605 l60 -67 -158 1 -159 0 -114 132
c-62 73 -179 207 -260 298 l-146 166 -3 -299 -2 -298 -125 0 -125 0 0 660 0
660 125 0 125 0 2 -300z"/>
</g>
</svg>
